<?xml version="1.0" encoding="UTF-8" standalone="no"?><!DOCTYPE svg PUBLIC "-//W3C//DTD SVG 1.1//EN" "http://www.w3.org/Graphics/SVG/1.1/DTD/svg11.dtd"><svg width="100%" height="100%" viewBox="0 0 1465 377" version="1.1" xmlns="http://www.w3.org/2000/svg" xmlns:xlink="http://www.w3.org/1999/xlink" xml:space="preserve" xmlns:serif="http://www.serif.com/" style="fill-rule:evenodd;clip-rule:evenodd;stroke-linecap:round;stroke-linejoin:round;stroke-miterlimit:1.5;"><g><path d="M1464.12,94.231c0,-52.007 -42.223,-94.231 -94.231,-94.231l-1275.65,0c-52.007,0 -94.231,42.224 -94.231,94.231l0,188.462c0,52.008 42.224,94.232 94.231,94.232l1275.65,-0c52.008,-0 94.231,-42.224 94.231,-94.232l0,-188.462Z" style="fill:#fffcfc;fill-opacity:0;"/><g><ellipse cx="211.384" cy="74.45" rx="50.147" ry="46.885" style="fill:#b1e2ee;"/><ellipse cx="170.614" cy="100.543" rx="50.147" ry="46.885" style="fill:#76d0e8;"/><path d="M65.384,225.32c-1.172,-64.397 63.6,-117.876 144.554,-119.349c80.954,-1.474 147.63,49.612 148.802,114.009c1.172,64.397 -63.6,117.876 -144.554,119.349c-80.954,1.474 -147.63,-49.612 -148.802,-114.009Z" style="fill:#8dd8eb;"/><clipPath id="_clip1"><path d="M65.384,225.32c-1.172,-64.397 63.6,-117.876 144.554,-119.349c80.954,-1.474 147.63,49.612 148.802,114.009c1.172,64.397 -63.6,117.876 -144.554,119.349c-80.954,1.474 -147.63,-49.612 -148.802,-114.009Z"/></clipPath><g clip-path="url(#_clip1)"><path d="M-86.693,93.9c-1.643,-90.28 55.026,-164.632 126.469,-165.933c71.444,-1.3 130.781,70.94 132.424,161.221c1.643,90.281 -55.025,164.633 -126.469,165.933c-71.443,1.301 -130.78,-70.94 -132.424,-161.221Z" style="fill:#b1e2ee;"/></g><path d="M196.025,259.675c-0.777,-42.701 38.591,-78.097 87.86,-78.994c49.268,-0.897 89.899,33.043 90.676,75.744c0.778,42.702 -38.591,78.098 -87.86,78.995c-49.268,0.896 -89.899,-33.044 -90.676,-75.745Z" style="fill:#8dd8eb;"/><path d="M364.095,139.984c17.529,30.183 13.783,65.129 -8.361,77.99c-22.144,12.86 -54.354,-1.204 -71.883,-31.388c-17.529,-30.183 -13.783,-65.129 8.361,-77.99c22.144,-12.86 54.354,1.204 71.883,31.388Z" style="fill:#b1e2ee;"/><path d="M124.969,242.549c-1.802,-6.837 -3.04,-13.918 -3.661,-21.197c-5.872,-68.862 45.758,-129.58 115.224,-135.503c69.466,-5.924 130.631,45.175 136.503,114.038c5.872,68.863 -45.758,129.58 -115.224,135.503c-42.2,3.599 -81.337,-13.847 -106.873,-43.533c-3.077,1.071 -6.386,1.789 -9.856,2.085c-18.359,1.566 -34.298,-9.282 -35.571,-24.21c-0.988,-11.597 7.163,-22.266 19.458,-27.183Z" style="fill:#fff;"/><clipPath id="_clip2"><path d="M124.969,242.549c-1.802,-6.837 -3.04,-13.918 -3.661,-21.197c-5.872,-68.862 45.758,-129.58 115.224,-135.503c69.466,-5.924 130.631,45.175 136.503,114.038c5.872,68.863 -45.758,129.58 -115.224,135.503c-42.2,3.599 -81.337,-13.847 -106.873,-43.533c-3.077,1.071 -6.386,1.789 -9.856,2.085c-18.359,1.566 -34.298,-9.282 -35.571,-24.21c-0.988,-11.597 7.163,-22.266 19.458,-27.183Z"/></clipPath><g clip-path="url(#_clip2)"><path d="M177.486,62.554c51.561,-18.59 103.489,-8.951 115.891,21.511c12.401,30.461 -19.392,70.285 -70.952,88.875c-51.56,18.59 -103.489,8.952 -115.89,-21.51c-12.401,-30.462 19.391,-70.286 70.951,-88.876Z" style="fill:#b1e2ee;"/><path d="M428.281,90.324c25.44,45.01 19.177,94.877 -13.977,111.289c-33.154,16.411 -80.726,-6.807 -106.166,-51.818c-25.44,-45.01 -19.177,-94.877 13.977,-111.288c33.154,-16.412 80.726,6.807 106.166,51.817Z" style="fill:#b1e2ee;"/><path d="M121.38,121.253c25.441,45.01 19.178,94.877 -13.976,111.288c-33.155,16.412 -80.726,-6.806 -106.166,-51.817c-25.441,-45.01 -19.178,-94.877 13.976,-111.289c33.155,-16.411 80.726,6.807 106.166,51.818Z" style="fill:#b1e2ee;"/><path d="M295.381,94.516c1.297,0.806 2.491,1.75 3.568,2.835c12.839,12.934 4.303,41.043 -19.049,62.731c-21.028,19.53 -46.947,27.236 -61.272,19.13c16.928,-3.274 36.377,-15.194 52.228,-33.606c14.364,-16.685 22.813,-35.263 24.525,-51.09Z" style="fill:#b1e2ee;"/><path d="M145.626,252.069c-11.116,28.396 16.786,66.664 62.271,85.403c45.484,18.739 91.437,10.898 102.553,-17.498c-17.822,12.113 -56.197,12.099 -94.295,-3.597c-38.099,-15.696 -65.824,-42.914 -70.529,-64.308Z" style="fill:#f3f3f3;"/></g><g><g><path d="M195.083,182.338c27.77,-1.666 51.656,19.099 53.308,46.34c1.652,27.241 -19.552,50.71 -47.322,52.375c-27.769,1.666 -51.656,-19.099 -53.308,-46.34c-1.652,-27.242 19.552,-50.71 47.322,-52.375Z" style="fill:none;stroke:#000;stroke-width:11.22px;"/><path d="M323.664,173.199c27.77,-1.665 51.656,19.099 53.308,46.34c1.652,27.242 -19.552,50.71 -47.322,52.376c-27.77,1.665 -51.656,-19.099 -53.308,-46.341c-1.652,-27.241 19.552,-50.71 47.322,-52.375Z" style="fill:none;stroke:#000;stroke-width:11.22px;"/><path d="M279.765,216.091l-34.059,2.042l0.628,10.345l34.058,-2.043l-0.627,-10.344Z"/><path d="M149.507,218.101l-26.619,1.596l-12.184,18.547l39.879,-2.391l-1.076,-17.752Z"/></g><g><path d="M218.375,216.605c10.384,-0.853 19.475,6.49 20.288,16.387c0.813,9.897 -6.958,18.624 -17.343,19.477c-10.384,0.853 -19.475,-6.49 -20.288,-16.387c-0.813,-9.897 6.958,-18.624 17.343,-19.477Z"/><path d="M218.375,216.605c10.384,-0.853 19.475,6.49 20.288,16.387c0.813,9.897 -6.958,18.624 -17.343,19.477c-10.384,0.853 -19.475,-6.49 -20.288,-16.387c-0.813,-9.897 6.958,-18.624 17.343,-19.477Z"/><path d="M226.697,221.723c3.046,-0.251 5.728,2.096 5.986,5.237c0.258,3.14 -2.005,5.893 -5.052,6.144c-3.046,0.25 -5.728,-2.097 -5.986,-5.238c-0.258,-3.14 2.006,-5.893 5.052,-6.143Z" style="fill:#fff7f7;"/></g><g><path d="M313.5,208.023c10.385,-0.853 19.476,6.49 20.288,16.387c0.813,9.897 -6.958,18.624 -17.342,19.477c-10.385,0.853 -19.476,-6.49 -20.289,-16.387c-0.812,-9.897 6.959,-18.624 17.343,-19.477Z"/><path d="M313.5,208.023c10.385,-0.853 19.476,6.49 20.288,16.387c0.813,9.897 -6.958,18.624 -17.342,19.477c-10.385,0.853 -19.476,-6.49 -20.289,-16.387c-0.812,-9.897 6.959,-18.624 17.343,-19.477Z"/><path d="M321.822,213.14c3.046,-0.25 5.729,2.097 5.987,5.238c0.258,3.14 -2.006,5.893 -5.052,6.143c-3.046,0.251 -5.729,-2.096 -5.987,-5.237c-0.258,-3.14 2.006,-5.893 5.052,-6.144Z" style="fill:#fff7f7;"/></g></g><path d="M248.739,284.284c0.588,8.366 8.973,14.604 18.713,13.919c9.741,-0.684 17.172,-8.032 16.585,-16.398c-3.942,2.799 -10.29,5.293 -17.33,5.787c-7.04,0.495 -13.674,-1.087 -17.968,-3.308Z" style="fill:#e14735;"/><path d="M155.833,152.272c6.147,10.192 26.717,9.07 45.906,-2.504c19.188,-11.575 29.776,-29.246 23.629,-39.438c-2.721,8.592 -13.81,20.922 -29.199,30.204c-15.389,9.283 -31.468,13.339 -40.336,11.738Z" style="fill:#76d0e8;"/></g><g><ellipse cx="938.599" cy="133.714" rx="26.743" ry="26.575" style="fill:#e64937;"/><g><path d="M500.488,186.529l0,76.48l-26.335,0l0,-79.006c0,-18.037 1.503,-31.085 4.51,-39.142c3.006,-8.057 7.756,-15.332 14.25,-21.826c7.936,-7.936 16.234,-13.528 24.892,-16.775c8.658,-3.247 19,-4.87 31.025,-4.87l0,26.335c-9.139,0 -16.895,1.323 -23.269,3.969c-6.373,2.645 -11.604,7.636 -15.693,14.971c-4.088,7.335 -6.674,13.709 -7.756,19.12c-1.082,5.412 -1.624,12.326 -1.624,20.744Z" style="fill-rule:nonzero;"/><path d="M558.931,184.003c0,-22.126 7.997,-40.946 23.991,-56.458c15.993,-15.513 35.294,-23.269 57.901,-23.269c22.127,-0 40.946,7.997 56.459,23.99c15.513,15.994 23.269,35.174 23.269,57.541c-0,22.127 -7.756,40.946 -23.269,56.459c-15.513,15.512 -34.332,23.269 -56.459,23.269c-22.607,-0 -41.908,-7.997 -57.901,-23.991c-15.994,-15.993 -23.991,-35.174 -23.991,-57.541Zm81.892,-54.113c-15.152,-0 -28.139,5.291 -38.962,15.873c-10.822,10.582 -16.234,23.57 -16.234,38.962c0,15.392 5.352,28.44 16.054,39.142c10.703,10.703 23.75,16.054 39.142,16.054c15.393,-0 28.38,-5.532 38.962,-16.595c10.582,-11.063 15.874,-24.411 15.874,-40.044c-0,-14.911 -5.412,-27.538 -16.235,-37.88c-10.822,-10.341 -23.689,-15.512 -38.601,-15.512Z" style="fill-rule:nonzero;"/><path d="M738.589,184.003c-0,-22.126 7.997,-40.946 23.99,-56.458c15.994,-15.513 35.294,-23.269 57.902,-23.269c22.126,-0 40.946,7.997 56.458,23.99c15.513,15.994 23.269,35.174 23.269,57.541c0,22.127 -7.756,40.946 -23.269,56.459c-15.512,15.512 -34.332,23.269 -56.458,23.269c-22.608,-0 -41.908,-7.997 -57.902,-23.991c-15.993,-15.993 -23.99,-35.174 -23.99,-57.541Zm81.892,-54.113c-15.152,-0 -28.139,5.291 -38.962,15.873c-10.823,10.582 -16.234,23.57 -16.234,38.962c-0,15.392 5.351,28.44 16.054,39.142c10.702,10.703 23.749,16.054 39.142,16.054c15.392,-0 28.379,-5.532 38.962,-16.595c10.582,-11.063 15.873,-24.411 15.873,-40.044c-0,-14.911 -5.411,-27.538 -16.234,-37.88c-10.823,-10.341 -23.69,-15.512 -38.601,-15.512Z" style="fill-rule:nonzero;"/><path d="M925.461,263.731l0,-96.123l26.696,-0l0,96.123l-26.696,-0Zm-5.772,-119.458c0,-2.998 1.804,-5.567 5.412,-7.707c3.607,-2.141 8.056,-3.212 13.348,-3.212c5.05,0 9.379,1.071 12.987,3.212c3.607,2.14 5.411,4.709 5.411,7.707c0,2.997 -1.804,5.566 -5.411,7.707c-3.608,2.14 -7.937,3.211 -12.987,3.211c-5.292,-0 -9.741,-0.999 -13.348,-2.997c-3.608,-1.999 -5.412,-4.639 -5.412,-7.921Z" style="fill:#e64937;fill-rule:nonzero;"/><path d="M1063.27,129.89c-15.152,-0 -28.139,5.291 -38.962,15.873c-10.823,10.582 -16.234,23.57 -16.234,38.962c-0,15.392 5.351,28.44 16.054,39.142c10.702,10.703 23.749,16.054 39.142,16.054c15.392,-0 28.379,-5.532 38.962,-16.595c10.582,-11.063 15.873,-24.411 15.873,-40.044c0,-14.911 -5.411,-27.538 -16.234,-37.88c-10.823,-10.341 -23.69,-15.512 -38.601,-15.512Zm78.645,42.569l38.24,91.272l-32.338,-0.626l-16.33,-36.183c-6.975,11.548 -16.597,20.871 -28.866,27.968c-12.27,7.096 -25.381,10.645 -39.334,10.645c-22.612,-0 -41.916,-7.997 -57.913,-23.991c-15.998,-15.993 -23.996,-35.174 -23.996,-57.541c-0,-22.126 7.997,-40.946 23.99,-56.458c15.994,-15.513 35.294,-23.269 57.902,-23.269c19.962,-0 37.278,6.494 51.949,19.481c14.671,12.987 23.569,29.221 26.696,48.702Z" style="fill-rule:nonzero;"/><path d="M1253.39,102.111c9.62,0 18.76,2.137 27.418,6.409c8.658,4.273 15.993,10.074 22.006,17.401c12.747,-15.873 29.943,-23.81 51.588,-23.81c16.836,0 31.447,5.738 43.833,17.212c12.386,11.475 18.579,25.548 18.579,42.218l-0,102.19l-25.253,-0l-0,-91.407c-0,-11.364 -3.488,-21.217 -10.462,-29.56c-6.975,-8.342 -15.874,-12.514 -26.697,-12.514c-10.822,0 -19.961,4.232 -27.417,12.695c-7.456,8.462 -11.184,18.256 -11.184,29.379l0,91.407l-25.253,-0l0,-92.737c0,-11.394 -3.487,-21.274 -10.462,-29.639c-6.974,-8.365 -15.873,-12.548 -26.696,-12.548c-10.822,0 -20.262,3.799 -28.319,11.395c-8.057,7.597 -12.086,16.699 -12.086,27.308l0,96.221l-24.892,-0l0,-105.578c0,-16.392 6.494,-29.83 19.481,-40.315c12.987,-10.484 28.259,-15.727 45.816,-15.727Z" style="fill-rule:nonzero;"/><rect x="474.289" y="106.044" width="25.763" height="73.911"/></g><g><g><path d="M669.544,160.647c13.266,6.882 18.71,22.734 12.151,35.377c-6.559,12.643 -22.655,17.319 -35.92,10.437c-13.266,-6.883 -18.71,-22.735 -12.151,-35.378c6.56,-12.642 22.655,-17.319 35.92,-10.436Z"/><path d="M675.752,173.209c3.891,2.019 5.36,6.915 3.279,10.927c-2.082,4.012 -6.931,5.63 -10.822,3.612c-3.891,-2.019 -5.361,-6.916 -3.279,-10.928c2.081,-4.011 6.93,-5.63 10.822,-3.611Z" style="fill:#fff7f7;"/></g><g><path d="M819.781,160.869c13.265,6.882 18.71,22.734 12.15,35.377c-6.559,12.642 -22.654,17.319 -35.92,10.437c-13.265,-6.883 -18.71,-22.735 -12.15,-35.378c6.559,-12.642 22.654,-17.319 35.92,-10.436Z"/><path d="M825.988,173.431c3.891,2.019 5.361,6.915 3.279,10.927c-2.081,4.012 -6.931,5.63 -10.822,3.612c-3.891,-2.019 -5.36,-6.916 -3.279,-10.928c2.082,-4.012 6.931,-5.63 10.822,-3.611Z" style="fill:#fff7f7;"/></g></g></g></g></svg>