<?xml version="1.0" encoding="UTF-8" standalone="no"?><!DOCTYPE svg PUBLIC "-//W3C//DTD SVG 1.1//EN" "http://www.w3.org/Graphics/SVG/1.1/DTD/svg11.dtd"><svg width="100%" height="100%" viewBox="0 0 943 165" version="1.1" xmlns="http://www.w3.org/2000/svg" xmlns:xlink="http://www.w3.org/1999/xlink" xml:space="preserve" xmlns:serif="http://www.serif.com/" style="fill-rule:evenodd;clip-rule:evenodd;stroke-linejoin:round;stroke-miterlimit:2;"><ellipse cx="464.446" cy="32.324" rx="26.743" ry="26.575" style="fill:#e64937;"/><g><path d="M26.335,85.139l0,76.481l-26.335,-0l0,-79.006c0,-18.038 1.503,-31.086 4.509,-39.143c3.007,-8.057 7.757,-15.332 14.25,-21.826c7.937,-7.936 16.235,-13.528 24.893,-16.775c8.658,-3.247 19,-4.87 31.025,-4.87l-0,26.335c-9.139,0 -16.896,1.323 -23.269,3.969c-6.373,2.645 -11.604,7.636 -15.693,14.971c-4.089,7.336 -6.674,13.709 -7.756,19.12c-1.083,5.412 -1.624,12.326 -1.624,20.744Z" style="fill-rule:nonzero;"/><path d="M84.778,82.614c0,-22.127 7.997,-40.946 23.991,-56.459c15.993,-15.513 35.294,-23.269 57.901,-23.269c22.127,0 40.946,7.997 56.459,23.99c15.512,15.994 23.269,35.174 23.269,57.541c-0,22.127 -7.757,40.946 -23.269,56.459c-15.513,15.513 -34.332,23.269 -56.459,23.269c-22.607,-0 -41.908,-7.997 -57.901,-23.991c-15.994,-15.993 -23.991,-35.173 -23.991,-57.54Zm81.892,-54.114c-15.152,-0 -28.139,5.291 -38.962,15.873c-10.822,10.582 -16.234,23.57 -16.234,38.962c0,15.392 5.351,28.44 16.054,39.142c10.702,10.703 23.75,16.054 39.142,16.054c15.392,0 28.38,-5.532 38.962,-16.595c10.582,-11.063 15.873,-24.411 15.873,-40.044c0,-14.911 -5.411,-27.538 -16.234,-37.88c-10.822,-10.341 -23.69,-15.512 -38.601,-15.512Z" style="fill-rule:nonzero;"/><path d="M264.436,82.614c-0,-22.127 7.996,-40.946 23.99,-56.459c15.994,-15.513 35.294,-23.269 57.902,-23.269c22.126,0 40.946,7.997 56.458,23.99c15.513,15.994 23.269,35.174 23.269,57.541c0,22.127 -7.756,40.946 -23.269,56.459c-15.512,15.513 -34.332,23.269 -56.458,23.269c-22.608,-0 -41.908,-7.997 -57.902,-23.991c-15.994,-15.993 -23.99,-35.173 -23.99,-57.54Zm81.892,-54.114c-15.152,-0 -28.14,5.291 -38.962,15.873c-10.823,10.582 -16.234,23.57 -16.234,38.962c-0,15.392 5.351,28.44 16.053,39.142c10.703,10.703 23.75,16.054 39.143,16.054c15.392,0 28.379,-5.532 38.961,-16.595c10.583,-11.063 15.874,-24.411 15.874,-40.044c-0,-14.911 -5.412,-27.538 -16.234,-37.88c-10.823,-10.341 -23.69,-15.512 -38.601,-15.512Z" style="fill-rule:nonzero;"/><path d="M451.308,162.341l0,-96.123l26.696,-0l0,96.123l-26.696,0Zm-5.772,-119.458c0,-2.998 1.804,-5.567 5.411,-7.707c3.608,-2.141 8.057,-3.212 13.348,-3.212c5.051,0 9.38,1.071 12.988,3.212c3.607,2.14 5.411,4.709 5.411,7.707c0,2.997 -1.804,5.566 -5.411,7.707c-3.608,2.14 -7.937,3.211 -12.988,3.211c-5.291,-0 -9.74,-0.999 -13.348,-2.997c-3.607,-1.998 -5.411,-4.639 -5.411,-7.921Z" style="fill:#e64937;fill-rule:nonzero;"/><path d="M589.118,28.5c-15.152,-0 -28.139,5.291 -38.962,15.873c-10.823,10.582 -16.234,23.57 -16.234,38.962c-0,15.392 5.351,28.44 16.053,39.142c10.703,10.703 23.75,16.054 39.143,16.054c15.392,0 28.379,-5.532 38.962,-16.595c10.582,-11.063 15.873,-24.411 15.873,-40.044c-0,-14.911 -5.412,-27.538 -16.234,-37.88c-10.823,-10.341 -23.69,-15.512 -38.601,-15.512Zm78.645,42.569l38.24,91.272l-32.338,-0.626l-16.33,-36.183c-6.975,11.548 -16.597,20.871 -28.867,27.968c-12.269,7.096 -25.38,10.645 -39.333,10.645c-22.612,-0 -41.916,-7.997 -57.913,-23.991c-15.998,-15.993 -23.996,-35.173 -23.996,-57.54c-0,-22.127 7.996,-40.946 23.99,-56.459c15.994,-15.513 35.294,-23.269 57.902,-23.269c19.962,0 37.278,6.494 51.949,19.481c14.671,12.987 23.569,29.221 26.696,48.702Z" style="fill-rule:nonzero;"/><path d="M779.237,0.722c9.62,-0 18.759,2.136 27.418,6.409c8.658,4.272 15.993,10.073 22.006,17.401c12.747,-15.874 29.943,-23.81 51.588,-23.81c16.836,-0 31.446,5.737 43.832,17.212c12.386,11.474 18.579,25.547 18.579,42.217l0,102.19l-25.253,0l0,-91.407c0,-11.364 -3.487,-21.217 -10.462,-29.56c-6.974,-8.342 -15.873,-12.513 -26.696,-12.513c-10.822,-0 -19.962,4.231 -27.417,12.694c-7.456,8.463 -11.184,18.256 -11.184,29.379l0,91.407l-25.253,0l0,-92.737c0,-11.394 -3.487,-21.274 -10.462,-29.639c-6.974,-8.365 -15.873,-12.547 -26.696,-12.547c-10.823,-0 -20.262,3.798 -28.319,11.394c-8.057,7.597 -12.086,16.7 -12.086,27.308l0,96.221l-24.892,0l-0,-105.578c-0,-16.392 6.494,-29.83 19.481,-40.315c12.987,-10.484 28.259,-15.726 45.816,-15.726Z" style="fill-rule:nonzero;"/><rect x="0.136" y="4.654" width="25.763" height="73.911"/></g><g><path d="M26.335,85.139l0,76.481l-26.335,-0l0,-79.006c0,-18.038 1.503,-31.086 4.509,-39.143c3.007,-8.057 7.757,-15.332 14.25,-21.826c7.937,-7.936 16.235,-13.528 24.893,-16.775c8.658,-3.247 19,-4.87 31.025,-4.87l-0,26.335c-9.139,0 -16.896,1.323 -23.269,3.969c-6.373,2.645 -11.604,7.636 -15.693,14.971c-4.089,7.336 -6.674,13.709 -7.756,19.12c-1.083,5.412 -1.624,12.326 -1.624,20.744Z" style="fill-rule:nonzero;"/><path d="M84.778,82.614c0,-22.127 7.997,-40.946 23.991,-56.459c15.993,-15.513 35.294,-23.269 57.901,-23.269c22.127,0 40.946,7.997 56.459,23.99c15.512,15.994 23.269,35.174 23.269,57.541c-0,22.127 -7.757,40.946 -23.269,56.459c-15.513,15.513 -34.332,23.269 -56.459,23.269c-22.607,-0 -41.908,-7.997 -57.901,-23.991c-15.994,-15.993 -23.991,-35.173 -23.991,-57.54Zm81.892,-54.114c-15.152,-0 -28.139,5.291 -38.962,15.873c-10.822,10.582 -16.234,23.57 -16.234,38.962c0,15.392 5.351,28.44 16.054,39.142c10.702,10.703 23.75,16.054 39.142,16.054c15.392,0 28.38,-5.532 38.962,-16.595c10.582,-11.063 15.873,-24.411 15.873,-40.044c0,-14.911 -5.411,-27.538 -16.234,-37.88c-10.822,-10.341 -23.69,-15.512 -38.601,-15.512Z" style="fill-rule:nonzero;"/><path d="M264.436,82.614c-0,-22.127 7.996,-40.946 23.99,-56.459c15.994,-15.513 35.294,-23.269 57.902,-23.269c22.126,0 40.946,7.997 56.458,23.99c15.513,15.994 23.269,35.174 23.269,57.541c0,22.127 -7.756,40.946 -23.269,56.459c-15.512,15.513 -34.332,23.269 -56.458,23.269c-22.608,-0 -41.908,-7.997 -57.902,-23.991c-15.994,-15.993 -23.99,-35.173 -23.99,-57.54Zm81.892,-54.114c-15.152,-0 -28.14,5.291 -38.962,15.873c-10.823,10.582 -16.234,23.57 -16.234,38.962c-0,15.392 5.351,28.44 16.053,39.142c10.703,10.703 23.75,16.054 39.143,16.054c15.392,0 28.379,-5.532 38.961,-16.595c10.583,-11.063 15.874,-24.411 15.874,-40.044c-0,-14.911 -5.412,-27.538 -16.234,-37.88c-10.823,-10.341 -23.69,-15.512 -38.601,-15.512Z" style="fill-rule:nonzero;"/><path d="M451.308,162.341l0,-96.123l26.696,-0l0,96.123l-26.696,0Zm-5.772,-119.458c0,-2.998 1.804,-5.567 5.411,-7.707c3.608,-2.141 8.057,-3.212 13.348,-3.212c5.051,0 9.38,1.071 12.988,3.212c3.607,2.14 5.411,4.709 5.411,7.707c0,2.997 -1.804,5.566 -5.411,7.707c-3.608,2.14 -7.937,3.211 -12.988,3.211c-5.291,-0 -9.74,-0.999 -13.348,-2.997c-3.607,-1.998 -5.411,-4.639 -5.411,-7.921Z" style="fill:#e64937;fill-rule:nonzero;"/><path d="M589.118,28.5c-15.152,-0 -28.139,5.291 -38.962,15.873c-10.823,10.582 -16.234,23.57 -16.234,38.962c-0,15.392 5.351,28.44 16.053,39.142c10.703,10.703 23.75,16.054 39.143,16.054c15.392,0 28.379,-5.532 38.962,-16.595c10.582,-11.063 15.873,-24.411 15.873,-40.044c-0,-14.911 -5.412,-27.538 -16.234,-37.88c-10.823,-10.341 -23.69,-15.512 -38.601,-15.512Zm78.645,42.569l38.24,91.272l-32.338,-0.626l-16.33,-36.183c-6.975,11.548 -16.597,20.871 -28.867,27.968c-12.269,7.096 -25.38,10.645 -39.333,10.645c-22.612,-0 -41.916,-7.997 -57.913,-23.991c-15.998,-15.993 -23.996,-35.173 -23.996,-57.54c-0,-22.127 7.996,-40.946 23.99,-56.459c15.994,-15.513 35.294,-23.269 57.902,-23.269c19.962,0 37.278,6.494 51.949,19.481c14.671,12.987 23.569,29.221 26.696,48.702Z" style="fill-rule:nonzero;"/><path d="M779.237,0.722c9.62,-0 18.759,2.136 27.418,6.409c8.658,4.272 15.993,10.073 22.006,17.401c12.747,-15.874 29.943,-23.81 51.588,-23.81c16.836,-0 31.446,5.737 43.832,17.212c12.386,11.474 18.579,25.547 18.579,42.217l0,102.19l-25.253,0l0,-91.407c0,-11.364 -3.487,-21.217 -10.462,-29.56c-6.974,-8.342 -15.873,-12.513 -26.696,-12.513c-10.822,-0 -19.962,4.231 -27.417,12.694c-7.456,8.463 -11.184,18.256 -11.184,29.379l0,91.407l-25.253,0l0,-92.737c0,-11.394 -3.487,-21.274 -10.462,-29.639c-6.974,-8.365 -15.873,-12.547 -26.696,-12.547c-10.823,-0 -20.262,3.798 -28.319,11.394c-8.057,7.597 -12.086,16.7 -12.086,27.308l0,96.221l-24.892,0l-0,-105.578c-0,-16.392 6.494,-29.83 19.481,-40.315c12.987,-10.484 28.259,-15.726 45.816,-15.726Z" style="fill-rule:nonzero;"/><rect x="0.136" y="4.654" width="25.763" height="73.911"/></g><g><g><path d="M195.391,59.257c13.266,6.882 18.71,22.734 12.151,35.377c-6.56,12.643 -22.655,17.319 -35.92,10.437c-13.266,-6.883 -18.71,-22.735 -12.151,-35.377c6.559,-12.643 22.655,-17.32 35.92,-10.437Z"/><path d="M201.598,71.819c3.892,2.019 5.361,6.916 3.279,10.927c-2.081,4.012 -6.93,5.631 -10.821,3.612c-3.892,-2.019 -5.361,-6.915 -3.279,-10.927c2.081,-4.012 6.93,-5.63 10.821,-3.612Z" style="fill:#fff7f7;"/></g><g><path d="M345.628,59.479c13.265,6.882 18.71,22.734 12.15,35.377c-6.559,12.643 -22.654,17.319 -35.92,10.437c-13.265,-6.883 -18.71,-22.735 -12.15,-35.377c6.559,-12.643 22.654,-17.32 35.92,-10.437Z"/><path d="M351.835,72.041c3.891,2.019 5.36,6.915 3.279,10.927c-2.082,4.012 -6.931,5.631 -10.822,3.612c-3.891,-2.019 -5.36,-6.915 -3.279,-10.927c2.082,-4.012 6.931,-5.631 10.822,-3.612Z" style="fill:#fff7f7;"/></g></g></svg>