<?xml version="1.0" encoding="UTF-8" standalone="no"?><!DOCTYPE svg PUBLIC "-//W3C//DTD SVG 1.1//EN" "http://www.w3.org/Graphics/SVG/1.1/DTD/svg11.dtd"><svg width="100%" height="100%" viewBox="0 0 296 296" version="1.1" xmlns="http://www.w3.org/2000/svg" xmlns:xlink="http://www.w3.org/1999/xlink" xml:space="preserve" xmlns:serif="http://www.serif.com/" style="fill-rule:evenodd;clip-rule:evenodd;stroke-linecap:round;stroke-linejoin:round;stroke-miterlimit:1.5;"><g><path d="M295.276,50.197c-0,-27.705 -22.493,-50.197 -50.197,-50.197l-194.882,-0c-27.705,-0 -50.197,22.492 -50.197,50.197l0,194.882c0,27.704 22.492,50.197 50.197,50.197l194.882,-0c27.704,-0 50.197,-22.493 50.197,-50.197l-0,-194.882Z" style="fill:#f7efef;"/><g><path d="M104.322,84.338c-1.208,-11.099 1.708,-23.305 9.053,-34.059c14.887,-21.796 42.366,-29.422 61.325,-17.021c14.536,9.508 19.87,28.047 14.86,46c36.296,11.747 61.986,40.637 61.986,74.377c-0,6.441 -0.936,12.706 -2.705,18.711c10.034,9.562 16.092,21.951 16.092,35.479c0,30.238 -30.266,54.787 -67.545,54.787c-19.258,-0 -36.645,-6.552 -48.953,-17.054c-12.248,10.039 -29.237,16.26 -48.004,16.26c-37.279,-0 -67.545,-24.549 -67.545,-54.787c0,-16.555 9.073,-31.404 23.402,-41.454c-0.718,-3.897 -1.09,-7.885 -1.09,-11.942c0,-29.599 19.771,-55.465 49.124,-69.297Z" style="fill:#fe895a;"/><clipPath id="_clip1"><path d="M104.322,84.338c-1.208,-11.099 1.708,-23.305 9.053,-34.059c14.887,-21.796 42.366,-29.422 61.325,-17.021c14.536,9.508 19.87,28.047 14.86,46c36.296,11.747 61.986,40.637 61.986,74.377c-0,6.441 -0.936,12.706 -2.705,18.711c10.034,9.562 16.092,21.951 16.092,35.479c0,30.238 -30.266,54.787 -67.545,54.787c-19.258,-0 -36.645,-6.552 -48.953,-17.054c-12.248,10.039 -29.237,16.26 -48.004,16.26c-37.279,-0 -67.545,-24.549 -67.545,-54.787c0,-16.555 9.073,-31.404 23.402,-41.454c-0.718,-3.897 -1.09,-7.885 -1.09,-11.942c0,-29.599 19.771,-55.465 49.124,-69.297Z"/></clipPath><g clip-path="url(#_clip1)"><ellipse cx="121.729" cy="73.639" rx="35.7" ry="32.554" style="fill:#e35c3f;"/><ellipse cx="90.289" cy="218.147" rx="68.357" ry="65.108" style="fill:#e75a38;"/><ellipse cx="202.256" cy="220.529" rx="68.357" ry="65.108" style="fill:#f97347;"/></g><path d="M52.804,186.481c-0.974,-5.469 -1.482,-11.09 -1.482,-16.825c0,-54.257 45.423,-98.307 101.372,-98.307c55.948,-0 101.371,44.05 101.371,98.307c0,54.257 -45.423,98.308 -101.371,98.308c-33.989,-0 -64.093,-16.257 -82.488,-41.182c-2.533,0.633 -5.228,0.974 -8.023,0.974c-14.786,0 -26.791,-9.549 -26.791,-21.31c0,-9.137 7.246,-16.939 17.412,-19.965Z" style="fill:#fff;"/><clipPath id="_clip2"><path d="M52.804,186.481c-0.974,-5.469 -1.482,-11.09 -1.482,-16.825c0,-54.257 45.423,-98.307 101.372,-98.307c55.948,-0 101.371,44.05 101.371,98.307c0,54.257 -45.423,98.308 -101.371,98.308c-33.989,-0 -64.093,-16.257 -82.488,-41.182c-2.533,0.633 -5.228,0.974 -8.023,0.974c-14.786,0 -26.791,-9.549 -26.791,-21.31c0,-9.137 7.246,-16.939 17.412,-19.965Z"/></clipPath><g clip-path="url(#_clip2)"><path d="M107.069,49.189c42.495,-11.102 83.36,-0.099 91.199,24.556c7.839,24.655 -20.297,53.685 -62.792,64.787c-42.496,11.102 -83.36,0.099 -91.199,-24.556c-7.839,-24.655 20.297,-53.685 62.792,-64.787Z" style="fill:#fd8b5e;"/><path d="M305.71,87.639c17.273,36.905 8.865,75.494 -18.764,86.12c-27.629,10.626 -64.084,-10.709 -81.356,-47.614c-17.273,-36.905 -8.865,-75.494 18.764,-86.119c27.629,-10.626 64.083,10.709 81.356,47.613Z" style="fill:#fd8b5e;"/><path d="M58.205,91.361c17.273,36.905 8.865,75.494 -18.764,86.12c-27.629,10.626 -64.084,-10.709 -81.357,-47.614c-17.273,-36.905 -8.865,-75.494 18.764,-86.12c27.629,-10.626 64.084,10.71 81.357,47.614Z" style="fill:#fd8b5e;"/><path d="M199.158,82.054c0.982,0.716 1.872,1.535 2.66,2.455c9.384,10.974 0.642,32.392 -19.509,47.799c-18.146,13.874 -39.396,18.173 -50.297,10.877c13.759,-1.432 30.123,-9.459 44.053,-22.804c12.623,-12.093 20.645,-26.061 23.093,-38.327Z" style="fill:#fd8b5e;"/><path d="M68.672,195.305c-10.825,21.471 8.877,53.266 43.968,70.958c35.092,17.691 72.37,14.623 83.195,-6.848c-15.077,8.287 -45.76,5.717 -75.153,-9.102c-29.394,-14.819 -49.707,-37.959 -52.01,-55.008Z" style="fill:#fddedc;"/></g><g><g><ellipse cx="102.937" cy="177.913" rx="40.351" ry="40.916" style="fill:none;stroke:#000;stroke-width:8.33px;"/><ellipse cx="209.134" cy="176.921" rx="40.351" ry="40.916" style="fill:none;stroke:#000;stroke-width:8.33px;"/><rect x="141.653" y="169.071" width="27.314" height="8.575"/><path d="M64.786,164.279l-14.92,0l-7.432,14.716l22.352,-0l-0,-14.716Z"/></g><g><ellipse cx="117.069" cy="179.79" rx="15.632" ry="14.888"/><ellipse cx="117.069" cy="179.79" rx="15.632" ry="14.888"/><ellipse cx="123.589" cy="174.411" rx="4.585" ry="4.724" style="fill:#fff7f7;"/></g><g><ellipse cx="196.151" cy="179.155" rx="15.632" ry="14.888"/><ellipse cx="196.151" cy="179.155" rx="15.632" ry="14.888"/><ellipse cx="202.672" cy="173.775" rx="4.585" ry="4.724" style="fill:#fff7f7;"/></g></g><path d="M139.793,220.073c-0.139,8.938 7.213,16.31 16.407,16.452c9.194,0.142 16.771,-6.999 16.909,-15.937c-2.846,4.426 -9.41,7.954 -16.783,7.84c-7.374,-0.114 -13.826,-3.843 -16.533,-8.355Z" style="fill:#b1323b;"/><path d="M93.69,117.316c4.617,7.654 19.634,7.072 33.515,-1.301c13.88,-8.372 21.401,-21.383 16.784,-29.038c-1.883,6.356 -9.835,15.39 -20.967,22.104c-11.132,6.714 -22.832,9.534 -29.332,8.235Z" style="fill:#e35c3f;"/></g></g></svg>