<?xml version="1.0" encoding="UTF-8" standalone="no"?><!DOCTYPE svg PUBLIC "-//W3C//DTD SVG 1.1//EN" "http://www.w3.org/Graphics/SVG/1.1/DTD/svg11.dtd"><svg width="100%" height="100%" viewBox="0 0 943 803" version="1.1" xmlns="http://www.w3.org/2000/svg" xmlns:xlink="http://www.w3.org/1999/xlink" xml:space="preserve" xmlns:serif="http://www.serif.com/" style="fill-rule:evenodd;clip-rule:evenodd;stroke-linecap:round;stroke-linejoin:round;stroke-miterlimit:1.5;"><g><g><path d="M776.08,179.99c4.213,-4.108 4.298,-10.864 0.189,-15.077l-2.03,-2.081c-4.108,-4.213 -10.864,-4.298 -15.076,-0.189l-29.764,29.026c-4.212,4.109 -4.297,10.864 -0.189,15.077l2.03,2.082c4.109,4.212 10.864,4.297 15.077,0.189l29.763,-29.027Z" style="fill:#fdaa02;"/><path d="M803.228,248.388c5.553,-1.947 8.48,-8.036 6.533,-13.589l-0.962,-2.744c-1.947,-5.553 -8.036,-8.48 -13.589,-6.533l-39.232,13.756c-5.553,1.947 -8.48,8.036 -6.533,13.589l0.962,2.744c1.947,5.553 8.036,8.48 13.589,6.533l39.232,-13.756Z" style="fill:#fdaa02;"/><path d="M797.437,321.534c5.77,1.154 11.392,-2.593 12.546,-8.363l0.57,-2.852c1.154,-5.77 -2.594,-11.391 -8.364,-12.545l-40.767,-8.153c-5.77,-1.154 -11.391,2.593 -12.545,8.363l-0.57,2.852c-1.154,5.77 2.593,11.391 8.363,12.545l40.767,8.153Z" style="fill:#fdaa02;"/><g><ellipse cx="403.092" cy="87.08" rx="93.138" ry="87.08" style="fill:#fd8b5e;"/><ellipse cx="327.371" cy="135.542" rx="93.138" ry="87.08" style="fill:#e35c3f;"/><path d="M131.928,367.289c-2.177,-119.604 118.125,-218.929 268.479,-221.666c150.355,-2.737 274.192,92.145 276.369,211.749c2.177,119.604 -118.125,218.929 -268.479,221.666c-150.355,2.736 -274.192,-92.145 -276.369,-211.749Z" style="fill:#f97347;"/><clipPath id="_clip1"><path d="M131.928,367.289c-2.177,-119.604 118.125,-218.929 268.479,-221.666c150.355,-2.737 274.192,92.145 276.369,211.749c2.177,119.604 -118.125,218.929 -268.479,221.666c-150.355,2.736 -274.192,-92.145 -276.369,-211.749Z"/></clipPath><g clip-path="url(#_clip1)"><path d="M-150.522,123.205c-3.053,-167.677 102.198,-305.771 234.889,-308.186c132.691,-2.415 242.898,131.757 245.95,299.434c3.052,167.677 -102.199,305.771 -234.89,308.186c-132.691,2.415 -242.897,-131.757 -245.949,-299.434Z" style="fill:#fd8b5e;"/></g><path d="M374.566,431.097c-1.443,-79.308 71.676,-145.049 163.182,-146.715c91.506,-1.665 166.969,61.371 168.412,140.679c1.444,79.309 -71.675,145.05 -163.181,146.715c-91.506,1.666 -166.969,-61.37 -168.413,-140.679Z" style="fill:#f97347;"/><path d="M686.722,208.796c32.556,56.059 25.598,120.964 -15.53,144.849c-41.128,23.885 -100.95,-2.236 -133.507,-58.296c-32.557,-56.059 -25.598,-120.964 15.529,-144.849c41.128,-23.885 100.951,2.236 133.508,58.296Z" style="fill:#fd8b5e;"/><path d="M242.594,399.289c-3.345,-12.699 -5.645,-25.849 -6.798,-39.368c-10.907,-127.899 84.985,-240.668 214.004,-251.67c129.018,-11.002 242.619,83.903 253.526,211.802c10.906,127.898 -84.986,240.667 -214.004,251.669c-78.379,6.684 -151.068,-25.718 -198.495,-80.854c-5.715,1.99 -11.862,3.324 -18.306,3.873c-34.098,2.908 -63.7,-17.24 -66.064,-44.965c-1.837,-21.539 13.303,-41.355 36.137,-50.487Z" style="fill:#fff;"/><clipPath id="_clip2"><path d="M242.594,399.289c-3.345,-12.699 -5.645,-25.849 -6.798,-39.368c-10.907,-127.899 84.985,-240.668 214.004,-251.67c129.018,-11.002 242.619,83.903 253.526,211.802c10.906,127.898 -84.986,240.667 -214.004,251.669c-78.379,6.684 -151.068,-25.718 -198.495,-80.854c-5.715,1.99 -11.862,3.324 -18.306,3.873c-34.098,2.908 -63.7,-17.24 -66.064,-44.965c-1.837,-21.539 13.303,-41.355 36.137,-50.487Z"/></clipPath><g clip-path="url(#_clip2)"><path d="M340.135,64.986c95.762,-34.527 192.209,-16.625 215.242,39.951c23.032,56.577 -36.015,130.541 -131.778,165.068c-95.763,34.527 -192.209,16.626 -215.242,-39.951c-23.032,-56.576 36.015,-130.541 131.778,-165.068Z" style="fill:#fd8b5e;"/><path d="M805.933,116.563c47.25,83.597 35.618,176.214 -25.959,206.695c-61.577,30.481 -149.931,-12.642 -197.181,-96.24c-47.25,-83.597 -35.618,-176.214 25.959,-206.695c61.577,-30.481 149.931,12.642 197.181,96.24Z" style="fill:#fd8b5e;"/><path d="M235.93,174.006c47.25,83.598 35.618,176.215 -25.959,206.696c-61.578,30.481 -149.931,-12.643 -197.181,-96.24c-47.25,-83.597 -35.618,-176.214 25.959,-206.695c61.577,-30.481 149.931,12.642 197.181,96.239Z" style="fill:#fd8b5e;"/><path d="M559.1,124.348c2.408,1.497 4.625,3.25 6.626,5.266c23.845,24.023 7.993,76.229 -35.379,116.51c-39.056,36.272 -87.194,50.584 -113.8,35.53c31.44,-6.081 67.563,-28.22 97.003,-62.417c26.678,-30.988 42.37,-65.493 45.55,-94.889Z" style="fill:#fd8b5e;"/><path d="M280.962,416.969c-20.647,52.741 31.176,123.816 115.654,158.62c84.477,34.803 169.825,20.241 190.471,-32.5c-33.1,22.499 -104.373,22.473 -175.134,-6.68c-70.76,-29.152 -122.254,-79.704 -130.991,-119.44Z" style="fill:#fddedc;"/></g><g><g><path d="M372.817,287.459c51.576,-3.093 95.941,35.472 99.009,86.067c3.068,50.596 -36.314,94.183 -87.891,97.277c-51.576,3.093 -95.94,-35.473 -99.009,-86.068c-3.068,-50.595 36.315,-94.183 87.891,-97.276Z" style="fill:none;stroke:#000;stroke-width:20.83px;"/><path d="M611.629,270.486c51.576,-3.093 95.941,35.472 99.009,86.067c3.068,50.595 -36.314,94.183 -87.891,97.276c-51.576,3.093 -95.941,-35.472 -99.009,-86.067c-3.068,-50.595 36.314,-94.183 87.891,-97.276Z" style="fill:none;stroke:#000;stroke-width:20.83px;"/><path d="M530.096,350.148l-63.257,3.793l1.166,19.213l63.256,-3.793l-1.165,-19.213Z"/><path d="M288.169,353.882l-49.439,2.965l-22.629,34.447l74.067,-4.442l-1.999,-32.97Z"/></g><g><path d="M416.077,351.103c19.287,-1.584 36.171,12.054 37.68,30.436c1.51,18.381 -12.923,34.591 -32.21,36.175c-19.287,1.583 -36.172,-12.054 -37.681,-30.436c-1.51,-18.381 12.924,-34.591 32.211,-36.175Z"/><path d="M416.077,351.103c19.287,-1.584 36.171,12.054 37.68,30.436c1.51,18.381 -12.923,34.591 -32.21,36.175c-19.287,1.583 -36.172,-12.054 -37.681,-30.436c-1.51,-18.381 12.924,-34.591 32.211,-36.175Z"/><path d="M431.533,360.608c5.657,-0.464 10.639,3.894 11.119,9.727c0.479,5.833 -3.726,10.946 -9.383,11.411c-5.658,0.464 -10.64,-3.894 -11.119,-9.727c-0.479,-5.833 3.725,-10.946 9.383,-11.411Z" style="fill:#fff7f7;"/></g><g><path d="M592.752,335.164c19.287,-1.584 36.171,12.053 37.681,30.435c1.51,18.382 -12.924,34.591 -32.211,36.175c-19.287,1.584 -36.171,-12.054 -37.681,-30.435c-1.509,-18.382 12.924,-34.591 32.211,-36.175Z"/><path d="M592.752,335.164c19.287,-1.584 36.171,12.053 37.681,30.435c1.51,18.382 -12.924,34.591 -32.211,36.175c-19.287,1.584 -36.171,-12.054 -37.681,-30.435c-1.509,-18.382 12.924,-34.591 32.211,-36.175Z"/><path d="M608.208,344.669c5.658,-0.465 10.64,3.894 11.119,9.727c0.479,5.833 -3.725,10.946 -9.383,11.41c-5.657,0.465 -10.639,-3.894 -11.118,-9.727c-0.479,-5.833 3.725,-10.946 9.382,-11.41Z" style="fill:#fff7f7;"/></g></g><path d="M472.471,476.803c1.092,15.539 16.666,27.123 34.757,25.852c18.091,-1.27 31.893,-14.918 30.802,-30.457c-7.321,5.199 -19.11,9.831 -32.186,10.749c-13.076,0.918 -25.397,-2.02 -33.373,-6.144Z" style="fill:#e14735;"/><path d="M299.918,231.618c11.417,18.929 49.621,16.845 85.26,-4.651c35.639,-21.497 55.304,-54.317 43.886,-73.246c-5.053,15.956 -25.648,38.857 -54.229,56.097c-28.582,17.24 -58.446,24.773 -74.917,21.8Z" style="fill:#e35c3f;"/></g></g></g><ellipse cx="464.446" cy="671.038" rx="26.743" ry="26.575" style="fill:#e64937;"/><g><path d="M26.335,723.853l0,76.481l-26.335,-0l0,-79.006c0,-18.038 1.503,-31.086 4.509,-39.143c3.007,-8.057 7.757,-15.332 14.25,-21.826c7.937,-7.936 16.235,-13.528 24.893,-16.775c8.658,-3.247 19,-4.87 31.025,-4.87l-0,26.335c-9.139,0 -16.896,1.323 -23.269,3.969c-6.373,2.645 -11.604,7.636 -15.693,14.971c-4.089,7.336 -6.674,13.709 -7.756,19.12c-1.083,5.412 -1.624,12.326 -1.624,20.744Z" style="fill-rule:nonzero;"/><path d="M84.778,721.328c0,-22.127 7.997,-40.946 23.991,-56.459c15.993,-15.513 35.294,-23.269 57.901,-23.269c22.127,0 40.946,7.997 56.459,23.99c15.512,15.994 23.269,35.174 23.269,57.541c-0,22.127 -7.757,40.946 -23.269,56.459c-15.513,15.513 -34.332,23.269 -56.459,23.269c-22.607,-0 -41.908,-7.997 -57.901,-23.991c-15.994,-15.993 -23.991,-35.173 -23.991,-57.54Zm81.892,-54.114c-15.152,-0 -28.139,5.291 -38.962,15.873c-10.822,10.582 -16.234,23.57 -16.234,38.962c0,15.392 5.351,28.44 16.054,39.142c10.702,10.703 23.75,16.054 39.142,16.054c15.392,0 28.38,-5.532 38.962,-16.595c10.582,-11.063 15.873,-24.411 15.873,-40.044c0,-14.911 -5.411,-27.538 -16.234,-37.88c-10.822,-10.341 -23.69,-15.512 -38.601,-15.512Z" style="fill-rule:nonzero;"/><path d="M264.436,721.328c-0,-22.127 7.996,-40.946 23.99,-56.459c15.994,-15.513 35.294,-23.269 57.902,-23.269c22.126,0 40.946,7.997 56.458,23.99c15.513,15.994 23.269,35.174 23.269,57.541c0,22.127 -7.756,40.946 -23.269,56.459c-15.512,15.513 -34.332,23.269 -56.458,23.269c-22.608,-0 -41.908,-7.997 -57.902,-23.991c-15.994,-15.993 -23.99,-35.173 -23.99,-57.54Zm81.892,-54.114c-15.152,-0 -28.14,5.291 -38.962,15.873c-10.823,10.582 -16.234,23.57 -16.234,38.962c-0,15.392 5.351,28.44 16.053,39.142c10.703,10.703 23.75,16.054 39.143,16.054c15.392,0 28.379,-5.532 38.961,-16.595c10.583,-11.063 15.874,-24.411 15.874,-40.044c-0,-14.911 -5.412,-27.538 -16.234,-37.88c-10.823,-10.341 -23.69,-15.512 -38.601,-15.512Z" style="fill-rule:nonzero;"/><path d="M451.308,801.055l0,-96.123l26.696,-0l0,96.123l-26.696,0Zm-5.772,-119.458c0,-2.997 1.804,-5.566 5.411,-7.707c3.608,-2.141 8.057,-3.212 13.348,-3.212c5.051,0 9.38,1.071 12.988,3.212c3.607,2.141 5.411,4.71 5.411,7.707c0,2.997 -1.804,5.566 -5.411,7.707c-3.608,2.141 -7.937,3.211 -12.988,3.211c-5.291,-0 -9.74,-0.999 -13.348,-2.997c-3.607,-1.998 -5.411,-4.639 -5.411,-7.921Z" style="fill:#e64937;fill-rule:nonzero;"/><path d="M589.118,667.214c-15.152,-0 -28.139,5.291 -38.962,15.873c-10.823,10.582 -16.234,23.57 -16.234,38.962c-0,15.392 5.351,28.44 16.053,39.142c10.703,10.703 23.75,16.054 39.143,16.054c15.392,0 28.379,-5.532 38.962,-16.595c10.582,-11.063 15.873,-24.411 15.873,-40.044c-0,-14.911 -5.412,-27.538 -16.234,-37.88c-10.823,-10.341 -23.69,-15.512 -38.601,-15.512Zm78.645,42.569l38.24,91.272l-32.338,-0.626l-16.33,-36.183c-6.975,11.549 -16.597,20.871 -28.867,27.968c-12.269,7.096 -25.38,10.645 -39.333,10.645c-22.612,-0 -41.916,-7.997 -57.913,-23.991c-15.998,-15.993 -23.996,-35.173 -23.996,-57.54c-0,-22.127 7.996,-40.946 23.99,-56.459c15.994,-15.513 35.294,-23.269 57.902,-23.269c19.962,0 37.278,6.494 51.949,19.481c14.671,12.987 23.569,29.221 26.696,48.702Z" style="fill-rule:nonzero;"/><path d="M779.237,639.436c9.62,-0 18.759,2.136 27.418,6.409c8.658,4.272 15.993,10.073 22.006,17.401c12.747,-15.874 29.943,-23.81 51.588,-23.81c16.836,-0 31.446,5.737 43.832,17.212c12.386,11.474 18.579,25.547 18.579,42.217l0,102.19l-25.253,0l0,-91.407c0,-11.364 -3.487,-21.217 -10.462,-29.56c-6.974,-8.342 -15.873,-12.513 -26.696,-12.513c-10.822,-0 -19.962,4.231 -27.417,12.694c-7.456,8.463 -11.184,18.256 -11.184,29.379l0,91.407l-25.253,0l0,-92.737c0,-11.394 -3.487,-21.274 -10.462,-29.639c-6.974,-8.365 -15.873,-12.547 -26.696,-12.547c-10.823,-0 -20.262,3.798 -28.319,11.394c-8.057,7.597 -12.086,16.7 -12.086,27.308l0,96.221l-24.892,0l-0,-105.578c-0,-16.392 6.494,-29.83 19.481,-40.315c12.987,-10.484 28.259,-15.726 45.816,-15.726Z" style="fill-rule:nonzero;"/><rect x="0.136" y="643.368" width="25.763" height="73.911"/></g><g><path d="M26.335,723.853l0,76.481l-26.335,-0l0,-79.006c0,-18.038 1.503,-31.086 4.509,-39.143c3.007,-8.057 7.757,-15.332 14.25,-21.826c7.937,-7.936 16.235,-13.528 24.893,-16.775c8.658,-3.247 19,-4.87 31.025,-4.87l-0,26.335c-9.139,0 -16.896,1.323 -23.269,3.969c-6.373,2.645 -11.604,7.636 -15.693,14.971c-4.089,7.336 -6.674,13.709 -7.756,19.12c-1.083,5.412 -1.624,12.326 -1.624,20.744Z" style="fill-rule:nonzero;"/><path d="M84.778,721.328c0,-22.127 7.997,-40.946 23.991,-56.459c15.993,-15.513 35.294,-23.269 57.901,-23.269c22.127,0 40.946,7.997 56.459,23.99c15.512,15.994 23.269,35.174 23.269,57.541c-0,22.127 -7.757,40.946 -23.269,56.459c-15.513,15.513 -34.332,23.269 -56.459,23.269c-22.607,-0 -41.908,-7.997 -57.901,-23.991c-15.994,-15.993 -23.991,-35.173 -23.991,-57.54Zm81.892,-54.114c-15.152,-0 -28.139,5.291 -38.962,15.873c-10.822,10.582 -16.234,23.57 -16.234,38.962c0,15.392 5.351,28.44 16.054,39.142c10.702,10.703 23.75,16.054 39.142,16.054c15.392,0 28.38,-5.532 38.962,-16.595c10.582,-11.063 15.873,-24.411 15.873,-40.044c0,-14.911 -5.411,-27.538 -16.234,-37.88c-10.822,-10.341 -23.69,-15.512 -38.601,-15.512Z" style="fill-rule:nonzero;"/><path d="M264.436,721.328c-0,-22.127 7.996,-40.946 23.99,-56.459c15.994,-15.513 35.294,-23.269 57.902,-23.269c22.126,0 40.946,7.997 56.458,23.99c15.513,15.994 23.269,35.174 23.269,57.541c0,22.127 -7.756,40.946 -23.269,56.459c-15.512,15.513 -34.332,23.269 -56.458,23.269c-22.608,-0 -41.908,-7.997 -57.902,-23.991c-15.994,-15.993 -23.99,-35.173 -23.99,-57.54Zm81.892,-54.114c-15.152,-0 -28.14,5.291 -38.962,15.873c-10.823,10.582 -16.234,23.57 -16.234,38.962c-0,15.392 5.351,28.44 16.053,39.142c10.703,10.703 23.75,16.054 39.143,16.054c15.392,0 28.379,-5.532 38.961,-16.595c10.583,-11.063 15.874,-24.411 15.874,-40.044c-0,-14.911 -5.412,-27.538 -16.234,-37.88c-10.823,-10.341 -23.69,-15.512 -38.601,-15.512Z" style="fill-rule:nonzero;"/><path d="M451.308,801.055l0,-96.123l26.696,-0l0,96.123l-26.696,0Zm-5.772,-119.458c0,-2.997 1.804,-5.566 5.411,-7.707c3.608,-2.141 8.057,-3.212 13.348,-3.212c5.051,0 9.38,1.071 12.988,3.212c3.607,2.141 5.411,4.71 5.411,7.707c0,2.997 -1.804,5.566 -5.411,7.707c-3.608,2.141 -7.937,3.211 -12.988,3.211c-5.291,-0 -9.74,-0.999 -13.348,-2.997c-3.607,-1.998 -5.411,-4.639 -5.411,-7.921Z" style="fill:#e64937;fill-rule:nonzero;"/><path d="M589.118,667.214c-15.152,-0 -28.139,5.291 -38.962,15.873c-10.823,10.582 -16.234,23.57 -16.234,38.962c-0,15.392 5.351,28.44 16.053,39.142c10.703,10.703 23.75,16.054 39.143,16.054c15.392,0 28.379,-5.532 38.962,-16.595c10.582,-11.063 15.873,-24.411 15.873,-40.044c-0,-14.911 -5.412,-27.538 -16.234,-37.88c-10.823,-10.341 -23.69,-15.512 -38.601,-15.512Zm78.645,42.569l38.24,91.272l-32.338,-0.626l-16.33,-36.183c-6.975,11.549 -16.597,20.871 -28.867,27.968c-12.269,7.096 -25.38,10.645 -39.333,10.645c-22.612,-0 -41.916,-7.997 -57.913,-23.991c-15.998,-15.993 -23.996,-35.173 -23.996,-57.54c-0,-22.127 7.996,-40.946 23.99,-56.459c15.994,-15.513 35.294,-23.269 57.902,-23.269c19.962,0 37.278,6.494 51.949,19.481c14.671,12.987 23.569,29.221 26.696,48.702Z" style="fill-rule:nonzero;"/><path d="M779.237,639.436c9.62,-0 18.759,2.136 27.418,6.409c8.658,4.272 15.993,10.073 22.006,17.401c12.747,-15.874 29.943,-23.81 51.588,-23.81c16.836,-0 31.446,5.737 43.832,17.212c12.386,11.474 18.579,25.547 18.579,42.217l0,102.19l-25.253,0l0,-91.407c0,-11.364 -3.487,-21.217 -10.462,-29.56c-6.974,-8.342 -15.873,-12.513 -26.696,-12.513c-10.822,-0 -19.962,4.231 -27.417,12.694c-7.456,8.463 -11.184,18.256 -11.184,29.379l0,91.407l-25.253,0l0,-92.737c0,-11.394 -3.487,-21.274 -10.462,-29.639c-6.974,-8.365 -15.873,-12.547 -26.696,-12.547c-10.823,-0 -20.262,3.798 -28.319,11.394c-8.057,7.597 -12.086,16.7 -12.086,27.308l0,96.221l-24.892,0l-0,-105.578c-0,-16.392 6.494,-29.83 19.481,-40.315c12.987,-10.484 28.259,-15.726 45.816,-15.726Z" style="fill-rule:nonzero;"/><rect x="0.136" y="643.368" width="25.763" height="73.911"/></g><g><g><path d="M195.391,697.971c13.266,6.882 18.71,22.734 12.151,35.377c-6.56,12.643 -22.655,17.319 -35.92,10.437c-13.266,-6.883 -18.71,-22.735 -12.151,-35.377c6.559,-12.643 22.655,-17.32 35.92,-10.437Z"/><path d="M201.598,710.533c3.892,2.019 5.361,6.916 3.279,10.928c-2.081,4.011 -6.93,5.63 -10.821,3.611c-3.892,-2.019 -5.361,-6.915 -3.279,-10.927c2.081,-4.012 6.93,-5.63 10.821,-3.612Z" style="fill:#fff7f7;"/></g><g><path d="M345.628,698.193c13.265,6.882 18.71,22.734 12.15,35.377c-6.559,12.643 -22.654,17.319 -35.92,10.437c-13.265,-6.883 -18.71,-22.735 -12.15,-35.377c6.559,-12.643 22.654,-17.32 35.92,-10.437Z"/><path d="M351.835,710.755c3.891,2.019 5.36,6.916 3.279,10.927c-2.082,4.012 -6.931,5.631 -10.822,3.612c-3.891,-2.019 -5.36,-6.915 -3.279,-10.927c2.082,-4.012 6.931,-5.63 10.822,-3.612Z" style="fill:#fff7f7;"/></g></g></svg>