<?xml version="1.0" encoding="UTF-8" standalone="no"?><!DOCTYPE svg PUBLIC "-//W3C//DTD SVG 1.1//EN" "http://www.w3.org/Graphics/SVG/1.1/DTD/svg11.dtd"><svg width="100%" height="100%" viewBox="0 0 308 308" version="1.1" xmlns="http://www.w3.org/2000/svg" xmlns:xlink="http://www.w3.org/1999/xlink" xml:space="preserve" xmlns:serif="http://www.serif.com/" style="fill-rule:evenodd;clip-rule:evenodd;stroke-linecap:round;stroke-linejoin:round;stroke-miterlimit:1.5;"><g><g><circle cx="153.543" cy="153.543" r="153.543" style="fill:#fee3d0;"/></g><g><path d="M108.956,76.129c-1.208,-11.099 1.708,-23.306 9.053,-34.06c14.887,-21.795 42.365,-29.422 61.324,-17.02c14.536,9.508 19.871,28.047 14.86,46c36.296,11.747 61.987,40.636 61.987,74.376c-0,6.442 -0.937,12.707 -2.706,18.712c10.035,9.561 16.093,21.951 16.093,35.479c-0,30.237 -30.266,54.786 -67.545,54.786c-19.259,0 -36.646,-6.551 -48.953,-17.053c-12.249,10.038 -29.238,16.259 -48.004,16.259c-37.279,0 -67.545,-24.549 -67.545,-54.786c-0,-16.555 9.072,-31.405 23.401,-41.454c-0.718,-3.898 -1.089,-7.885 -1.089,-11.943c-0,-29.598 19.771,-55.464 49.124,-69.296Z" style="fill:#fe895a;"/><clipPath id="_clip1"><path d="M108.956,76.129c-1.208,-11.099 1.708,-23.306 9.053,-34.06c14.887,-21.795 42.365,-29.422 61.324,-17.02c14.536,9.508 19.871,28.047 14.86,46c36.296,11.747 61.987,40.636 61.987,74.376c-0,6.442 -0.937,12.707 -2.706,18.712c10.035,9.561 16.093,21.951 16.093,35.479c-0,30.237 -30.266,54.786 -67.545,54.786c-19.259,0 -36.646,-6.551 -48.953,-17.053c-12.249,10.038 -29.238,16.259 -48.004,16.259c-37.279,0 -67.545,-24.549 -67.545,-54.786c-0,-16.555 9.072,-31.405 23.401,-41.454c-0.718,-3.898 -1.089,-7.885 -1.089,-11.943c-0,-29.598 19.771,-55.464 49.124,-69.296Z"/></clipPath><g clip-path="url(#_clip1)"><ellipse cx="126.363" cy="65.43" rx="35.7" ry="32.554" style="fill:#e35c3f;"/><ellipse cx="94.923" cy="209.938" rx="68.357" ry="65.108" style="fill:#e75a38;"/><ellipse cx="206.89" cy="212.32" rx="68.357" ry="65.108" style="fill:#f97347;"/></g><path d="M57.437,178.271c-0.974,-5.468 -1.481,-11.089 -1.481,-16.824c-0,-54.257 45.423,-98.308 101.371,-98.308c55.949,0 101.372,44.051 101.372,98.308c-0,54.257 -45.423,98.307 -101.372,98.307c-33.988,0 -64.093,-16.257 -82.487,-41.181c-2.533,0.633 -5.228,0.974 -8.023,0.974c-14.787,-0 -26.791,-9.549 -26.791,-21.31c-0,-9.138 7.245,-16.939 17.411,-19.966Z" style="fill:#fff;"/><clipPath id="_clip2"><path d="M57.437,178.271c-0.974,-5.468 -1.481,-11.089 -1.481,-16.824c-0,-54.257 45.423,-98.308 101.371,-98.308c55.949,0 101.372,44.051 101.372,98.308c-0,54.257 -45.423,98.307 -101.372,98.307c-33.988,0 -64.093,-16.257 -82.487,-41.181c-2.533,0.633 -5.228,0.974 -8.023,0.974c-14.787,-0 -26.791,-9.549 -26.791,-21.31c-0,-9.138 7.245,-16.939 17.411,-19.966Z"/></clipPath><g clip-path="url(#_clip2)"><path d="M111.703,40.98c42.495,-11.103 83.36,-0.099 91.199,24.556c7.839,24.654 -20.298,53.685 -62.793,64.787c-42.495,11.102 -83.36,0.099 -91.199,-24.556c-7.838,-24.655 20.298,-53.685 62.793,-64.787Z" style="fill:#fd8b5e;"/><path d="M310.344,79.43c17.273,36.905 8.865,75.494 -18.764,86.12c-27.629,10.626 -64.084,-10.709 -81.357,-47.614c-17.273,-36.905 -8.865,-75.494 18.764,-86.12c27.629,-10.626 64.084,10.709 81.357,47.614Z" style="fill:#fd8b5e;"/><path d="M62.839,83.152c17.272,36.905 8.865,75.494 -18.765,86.12c-27.629,10.626 -64.083,-10.71 -81.356,-47.614c-17.273,-36.905 -8.865,-75.494 18.764,-86.12c27.629,-10.626 64.084,10.709 81.357,47.614Z" style="fill:#fd8b5e;"/><path d="M203.792,73.844c0.982,0.717 1.872,1.535 2.659,2.456c9.384,10.974 0.643,32.392 -19.508,47.799c-18.146,13.873 -39.396,18.172 -50.298,10.877c13.759,-1.433 30.124,-9.459 44.053,-22.804c12.623,-12.093 20.646,-26.061 23.094,-38.328Z" style="fill:#fd8b5e;"/><path d="M73.306,187.096c-10.825,21.47 8.876,53.265 43.968,70.957c35.091,17.692 72.369,14.624 83.194,-6.847c-15.076,8.287 -45.759,5.716 -75.153,-9.103c-29.393,-14.819 -49.706,-37.959 -52.009,-55.007Z" style="fill:#fddedc;"/></g><g><g><ellipse cx="107.57" cy="169.704" rx="40.351" ry="40.916" style="fill:none;stroke:#000;stroke-width:8.33px;"/><ellipse cx="213.768" cy="168.712" rx="40.351" ry="40.916" style="fill:none;stroke:#000;stroke-width:8.33px;"/><rect x="146.287" y="160.862" width="27.314" height="8.575"/><path d="M69.419,156.07l-14.919,-0l-7.432,14.715l22.351,0l0,-14.715Z"/></g><g><ellipse cx="121.702" cy="171.581" rx="15.632" ry="14.888"/><ellipse cx="121.702" cy="171.581" rx="15.632" ry="14.888"/><ellipse cx="128.223" cy="166.201" rx="4.585" ry="4.724" style="fill:#fff7f7;"/></g><g><ellipse cx="200.785" cy="170.945" rx="15.632" ry="14.888"/><ellipse cx="200.785" cy="170.945" rx="15.632" ry="14.888"/><ellipse cx="207.306" cy="165.566" rx="4.585" ry="4.724" style="fill:#fff7f7;"/></g></g><path d="M144.426,211.864c-0.138,8.938 7.214,16.31 16.408,16.452c9.194,0.142 16.77,-6.999 16.908,-15.937c-2.845,4.426 -9.41,7.954 -16.783,7.84c-7.373,-0.114 -13.826,-3.843 -16.533,-8.355Z" style="fill:#b1323b;"/><path d="M98.323,109.107c4.617,7.654 19.635,7.071 33.515,-1.301c13.881,-8.372 21.401,-21.384 16.785,-29.038c-1.884,6.355 -9.836,15.389 -20.967,22.104c-11.132,6.714 -22.832,9.534 -29.333,8.235Z" style="fill:#e35c3f;"/></g></g></svg>