<?xml version="1.0" encoding="UTF-8" standalone="no"?><!DOCTYPE svg PUBLIC "-//W3C//DTD SVG 1.1//EN" "http://www.w3.org/Graphics/SVG/1.1/DTD/svg11.dtd"><svg width="100%" height="100%" viewBox="0 0 1116 130" version="1.1" xmlns="http://www.w3.org/2000/svg" xmlns:xlink="http://www.w3.org/1999/xlink" xml:space="preserve" xmlns:serif="http://www.serif.com/" style="fill-rule:evenodd;clip-rule:evenodd;stroke-linejoin:round;stroke-miterlimit:2;"><text x="-6.863px" y="98.028px" style="font-family:'Sniglet-Regular', 'Sniglet', fantasy;font-size:129.496px;fill:#e35c3f;">powered by</text><g><g><path d="M710.27,65.587l0,33.803l-11.64,0l0,-34.919c0,-7.973 0.665,-13.74 1.993,-17.301c1.329,-3.561 3.429,-6.776 6.299,-9.646c3.508,-3.508 7.175,-5.98 11.002,-7.415c3.826,-1.435 8.397,-2.152 13.712,-2.152l0,11.639c-4.039,0 -7.467,0.585 -10.284,1.754c-2.817,1.17 -5.129,3.375 -6.936,6.618c-1.807,3.242 -2.95,6.059 -3.428,8.45c-0.479,2.392 -0.718,5.448 -0.718,9.169Z" style="fill-rule:nonzero;"/><path d="M736.101,64.471c-0,-9.78 3.534,-18.098 10.603,-24.954c7.069,-6.857 15.6,-10.285 25.592,-10.285c9.78,0 18.098,3.535 24.954,10.604c6.856,7.069 10.284,15.546 10.284,25.432c0,9.779 -3.428,18.097 -10.284,24.954c-6.856,6.856 -15.174,10.284 -24.954,10.284c-9.992,0 -18.523,-3.534 -25.592,-10.603c-7.069,-7.069 -10.603,-15.547 -10.603,-25.432Zm36.195,-23.918c-6.697,0 -12.437,2.339 -17.221,7.016c-4.783,4.677 -7.175,10.417 -7.175,17.22c0,6.804 2.365,12.57 7.096,17.301c4.73,4.73 10.497,7.095 17.3,7.095c6.803,0 12.543,-2.445 17.221,-7.334c4.677,-4.89 7.015,-10.79 7.015,-17.699c0,-6.591 -2.391,-12.172 -7.175,-16.743c-4.783,-4.57 -10.47,-6.856 -17.061,-6.856Z" style="fill-rule:nonzero;"/><path d="M815.507,64.471c-0,-9.78 3.534,-18.098 10.603,-24.954c7.069,-6.857 15.6,-10.285 25.592,-10.285c9.78,0 18.098,3.535 24.954,10.604c6.856,7.069 10.284,15.546 10.284,25.432c0,9.779 -3.428,18.097 -10.284,24.954c-6.856,6.856 -15.174,10.284 -24.954,10.284c-9.992,0 -18.523,-3.534 -25.592,-10.603c-7.069,-7.069 -10.603,-15.547 -10.603,-25.432Zm36.195,-23.918c-6.697,0 -12.437,2.339 -17.221,7.016c-4.783,4.677 -7.175,10.417 -7.175,17.22c0,6.804 2.365,12.57 7.096,17.301c4.73,4.73 10.497,7.095 17.3,7.095c6.803,0 12.543,-2.445 17.221,-7.334c4.677,-4.89 7.015,-10.79 7.015,-17.699c0,-6.591 -2.391,-12.172 -7.175,-16.743c-4.783,-4.57 -10.47,-6.856 -17.061,-6.856Z" style="fill-rule:nonzero;"/><path d="M898.102,99.709l-0,-42.485l11.799,-0l0,42.485l-11.799,-0Zm-2.551,-52.799c-0,-1.325 0.797,-2.46 2.391,-3.406c1.595,-0.946 3.561,-1.42 5.9,-1.42c2.232,0 4.146,0.474 5.74,1.42c1.595,0.946 2.392,2.081 2.392,3.406c-0,1.325 -0.797,2.46 -2.392,3.407c-1.594,0.946 -3.508,1.419 -5.74,1.419c-2.339,-0 -4.305,-0.442 -5.9,-1.325c-1.594,-0.883 -2.391,-2.05 -2.391,-3.501Z" style="fill:#e64937;fill-rule:nonzero;"/><path d="M959.012,40.553c-6.697,0 -12.437,2.339 -17.221,7.016c-4.783,4.677 -7.175,10.417 -7.175,17.22c-0,6.804 2.365,12.57 7.095,17.301c4.731,4.73 10.497,7.095 17.301,7.095c6.803,0 12.543,-2.445 17.22,-7.334c4.677,-4.89 7.016,-10.79 7.016,-17.699c-0,-6.591 -2.392,-12.172 -7.175,-16.743c-4.784,-4.57 -10.471,-6.856 -17.061,-6.856Zm34.76,18.815l16.901,40.341l-14.293,-0.277l-7.217,-15.992c-3.083,5.104 -7.336,9.225 -12.759,12.361c-5.423,3.137 -11.218,4.705 -17.385,4.705c-9.994,0 -18.526,-3.534 -25.597,-10.603c-7.07,-7.069 -10.605,-15.547 -10.605,-25.432c-0,-9.78 3.534,-18.098 10.603,-24.954c7.069,-6.857 15.599,-10.285 25.592,-10.285c8.823,0 16.476,2.87 22.96,8.611c6.485,5.74 10.418,12.915 11.8,21.525Z" style="fill-rule:nonzero;"/><path d="M1043.04,28.276c4.252,-0 8.291,0.944 12.118,2.832c3.827,1.889 7.069,4.452 9.726,7.691c5.634,-7.016 13.235,-10.523 22.802,-10.523c7.441,-0 13.898,2.535 19.373,7.607c5.474,5.072 8.211,11.291 8.211,18.659l0,45.167l-11.161,-0l-0,-40.401c-0,-5.022 -1.542,-9.377 -4.624,-13.064c-3.083,-3.688 -7.016,-5.531 -11.799,-5.531c-4.784,-0 -8.823,1.87 -12.119,5.61c-3.295,3.741 -4.943,8.069 -4.943,12.985l0,40.401l-11.161,-0l-0,-40.989c-0,-5.036 -1.541,-9.402 -4.624,-13.099c-3.083,-3.698 -7.016,-5.546 -11.799,-5.546c-4.784,-0 -8.956,1.679 -12.517,5.036c-3.561,3.358 -5.342,7.381 -5.342,12.07l0,42.528l-11.002,-0l0,-46.664c0,-7.245 2.87,-13.184 8.611,-17.818c5.74,-4.634 12.49,-6.951 20.25,-6.951Z" style="fill-rule:nonzero;"/><rect x="698.69" y="30.014" width="11.387" height="32.668"/></g><ellipse cx="904.241" cy="43.077" rx="10.118" ry="10.124" style="fill:#e64937;"/></g></svg>